<svg version="1" xmlns="http://www.w3.org/2000/svg" width="800" height="800" viewBox="0 0 600.000000 600.000000"><path d="M112.3 1.5c.1.5-.4.9-1.1.7-1-.2-1 .2 0 1.8 1.6 2.6 2.8 2.6 2.3 0-.3-1.3 0-1.8.7-1.4.7.5.8.2.3-.7-.7-1.1-.6-1.2.6-.2 1.1.9 1.9.9 2.6.2.8-.8 1.3-.7 1.8 0 .4.7.1 1-.7.9-.7-.2-1.2.3-1 .9.1.7-.4 1.2-1 1-.7-.1-1.2.4-1 1 .1.7-.1 1.2-.5 1-.5-.1-.8.2-.8.8 0 .5.4.9.8.7.5-.1.6.2.2.8-.3.5 2.4 5.8 6.1 11.7 9 14.3 43.5 68.7 44 69.2.1.1.8-1.7 1.4-4 2-7.3 4.8-11.7 12.7-20l7.6-7.9-13.6-28.8L160.1.5h-24c-15.4 0-23.9.4-23.8 1zm11.1.3c.3.5-.1.9-.9.9s-1.2-.4-.9-.9c.3-.4.7-.8.9-.8.2 0 .6.4.9.8zM202 .7c0 1.3 13.2 41.8 13.9 42.5.7.8 25.1-7.6 30.8-10.5 1.8-1 3-2.3 2.8-3-.2-.6-1.6-7.6-3.1-15.5L243.8 0h-20.9c-11.5 0-20.9.3-20.9.7zM280.4 4.6c.3 2.6.6 5.9.6 7.5v2.8l5.4-2.5c5-2.3 15.6-4.4 15.6-3.2 0 .3-1.6 3.2-3.5 6.4-3.3 5.4-7.5 16.7-7.5 20 0 1.2 8.6-7.3 22.8-22.8 4.7-5.2 6.2-7.5 6.2-9.8V0h-40.3l.7 4.6zM367.7 3.2c-1.3 1.8-3.2 4.5-4.1 5.9l-1.6 2.6 5.6-2.8c3.4-1.8 7.3-2.9 9.7-2.9h4l-5.9 5.8c-6 5.9-9.6 11.5-13.4 21.2l-2.2 5.5 6.9-6.6c6.9-6.7 15.4-12.8 23.1-16.4 3.7-1.8 4.4-2.7 6.2-7.9 1.1-3.3 2-6.4 2-6.8 0-.4-6.3-.8-13.9-.8h-14l-2.4 3.2zM436.2 8.2c-2.1 4.6-8.1 17.2-13.2 28.1l-9.4 19.8 2.5 1.6c5.7 3.8 15.9 15.9 18.2 21.5 1.3 3.4 2.7 5.4 3.3 5 .9-.6 9.5-13.9 41-64 5.7-8.9 10-16.2 9.7-16.2-.3 0 .1-.8 1-1.8 1.5-1.6.3-1.7-23.8-2L440-.1l-3.8 8.3zm43.2-6.4c.3.5-.1.9-.9.9s-1.2-.4-.9-.9c.3-.4.7-.8.9-.8.2 0 .6.4.9.8zm6 .5c.3-.4 1.3-.8 2.2-.9 1.1-.2 1.2.1.5 1-.6.7-.9 1.5-.6 1.8.3.3-.2 1.1-1 1.8-1.3 1.1-1.6 1.1-1.3-.1.2-.8-.3-1.3-.9-1.2-.7.2-1.2-.3-1-1 .1-.6-.4-1.1-1.1-.9-.8.1-1.1-.2-.7-.8.5-.8 1.1-.8 1.9-.1.7.6 1.6.8 2 .4z"/><path d="M485.5 2.9c-.3.5-.2 1.2.3 1.5.5.3.9-.1.9-.9 0-1.7-.3-1.9-1.2-.6zM72.3 25.4c0 .8.4 1.4.8 1.3.4-.1.6.2.6.8-.1.5-.5.9-.9.7-.5-.1-.7.2-.5.7.1.5-.2.9-.8.9-.5 0-.9-.3-.8-.7.1-.4-.4-.8-1.1-.8-.7 0-1.3.6-1.3 1.3 0 .7.3 1.2.6 1.1.3-.1.6.2.6.8 0 .5-.3.9-.7.7-.5-.1-.7.1-.5.5.1.5-.2.9-.8.9-.5.1-.9-.1-.8-.5.1-.4-.4-.8-1.2-.8-.8 0-1.3.5-1.2 1.1.1.6-.4 1-1.1.8-.6-.1-1.1.4-1 1 .2.7-.3 1.2-1 1-.6-.1-1.1.4-1 1 .2.7-.3 1.2-.9 1-.7-.1-1.2.4-1 1 .1.7-.4 1.2-1 1-.7-.1-1.2.4-1 1 .1.7-.4 1.2-1 1-.7-.1-1.2.4-1 1 .1.7-.4 1.2-1 1-.7-.1-1.2.4-1 1 .1.7-.4 1.2-1 1.1-.7-.2-1.2.3-1 1 .1.6-.4 1.1-1 1-.7-.2-1.2.3-1 1 .1.6-.4 1.1-1 1-.7-.2-1.2.3-1 1 .1.6-.4 1.1-1 1-.7-.2-1.2.3-1 1 .1.6-.4 1.1-1.1.9-.6-.1-1.1.4-1 1 .2.7-.4 1.2-1.2 1-2.1-.5 2.5 4.2 29 29.2 45 42.5 56 52.6 56.9 52.6 1 0 2.1-3.4 2.1-6.8 0-2 .3-2.1 2.8-1.5 6.6 1.8 18.2-.6 18.2-3.7 0-.5-3.2-3.1-7.1-5.7-7.6-5.1-7.6-6.1.4-6.2l3.8-.1-2.7-3.6c-3.7-4.8-9.6-7.7-13.7-6.8l-3.2.6 2-2.3c1.1-1.3 2.6-2.8 3.3-3.2.9-.6-.4-2.9-5.1-8.5C100 56.6 81.6 34.7 79.5 32.6c-1.4-1.4-2.5-2.9-2.5-3.4s-1-1.8-2.3-3c-1.7-1.7-2.4-1.8-2.4-.8zm3.4 3.3c-.4.3.1 1.5 1 2.5 1.4 1.5 1.4 1.9.3 1.6-.8-.2-1.4.3-1.2.9.1.7-.4 1.2-1 1-.7-.1-1.2.4-1 1 .1.7-.4 1.2-1 1-.7-.1-1.2.4-1 1 .1.7-.4 1.2-1 1-.7-.1-1.2.4-1 1 .1.7-.4 1.2-1 1-.7-.1-1.2.3-1.1.9.1.6-.4 1.1-1.2 1.1-.8 0-1.3-.3-1.2-.6.1-.3-.2-.6-.8-.6-.5 0-.9.3-.7.7.1.5-.1.7-.5.5-.5-.1-.8.2-.8.8 0 .5.3.9.6.8.3-.1.6.4.6 1.1 0 .7-.6 1.3-1.3 1.3-.7 0-1.2-.3-1.1-.6.1-.3-.2-.6-.8-.6-.5 0-.9.3-.8.7.2.5 0 .7-.5.5-.4-.1-.7.2-.7.8 0 .5.3.9.6.8.3-.1.6.4.6 1.1 0 .7-.6 1.3-1.3 1.3-.7 0-1.2-.3-1.1-.6.1-.3-.2-.6-.8-.6-.5 0-.9.3-.8.7.2.5 0 .7-.5.5-.4-.1-.7.2-.7.8 0 .5.3.9.6.8.3-.1.6.4.6 1.1 0 .7-.6 1.3-1.3 1.3-.7 0-1.2-.4-1.1-.8.1-.4-.2-.7-.8-.7-.5 0-.9.4-.8.9.2.5-.1.8-.6.6-.5-.1-.9.2-.9.8 0 .5.3.9.7.8.4-.1.8.4.8 1.1 0 .7-.6 1.3-1.3 1.3-.7 0-1.2-.4-1.1-.8.1-.4-.2-.7-.8-.7-.5 0-.9.4-.8.9.2.5 0 .8-.5.6-.4-.1-.7.2-.7.8 0 .5.3.9.6.8.3-.1.6.5.6 1.3 0 1-.9.6-2.9-1.3L42 57.6l11.7-11.8c8-8 12-11.4 12.8-10.8.8.6 2.4-.4 5-3 2.2-2.2 4.1-4 4.4-4 .2 0 .1.3-.2.7z"/><path d="M71 33.5c-2.6 2.7-3.7 3.2-4.7 2.4-1.3-1.1-1.4-1-1.7 1.3 0 .7-.6 1.3-1.3 1.3-1.5 0-2.8 1.3-2.8 2.8 0 .7-.5 1.2-1.2 1.2-1.5 0-2.8 1.3-2.8 2.8 0 .7-.5 1.2-1.2 1.2-1.4 0-2.8 1.3-2.8 2.8-.1.7-.6 1.1-1.2 1-1.4-.3-6.6 5.3-6.9 7.4-.2.9 4.3-2.9 9.9-8.5 6.9-6.9 10.6-9.9 11.3-9.2.7.7 2.6-.6 5.8-3.9 2.6-2.7 4.4-5.1 3.9-5.4-.6-.4-2.5.9-4.3 2.8zm1 .9c0 .2-.8 1-1.7 1.7-1.6 1.3-1.7 1.2-.4-.4 1.3-1.6 2.1-2.1 2.1-1.3zm-4.4 4.3c-1 1.1-1.9.7-2.2-1-.2-1.5 0-1.6 1.2-.6.8.6 1.2 1.4 1 1.6zM51 51.3c0 .2-1.5 1.6-3.2 3.3l-3.3 2.9 2.9-3.3c2.8-3 3.6-3.7 3.6-2.9zM526.3 26.9c.1.3-.1.6-.4.6-1.4 0-4.8 3.8-4.3 4.7.3.4.1.7-.4.6-1-.3-6.6 6.3-44 51.4-18.1 21.9-24.2 30.3-24.2 33.3 0 .3.9.1 1.9-.5 3-1.5 3.1-1.4 3.1 4.2l.1 5.3 2.8-3.3 2.9-3.4.6 3.9c.3 2.1 1.1 7.5 1.7 12.1l1.2 8.4 3.6-3.4c2-1.9 17.5-16.5 34.6-32.4 17-15.9 35.2-33.2 40.5-38.4 5.2-5.2 9.8-9.3 10.3-9.2.4.1.6-.4.5-1-.2-.7.2-1.2.8-1.1.6.1 1.1-.4 1.1-1.2 0-.8-.5-1.3-1.1-1.2-.6.1-1-.4-.8-1.1.1-.6-.4-1.1-1-1-.7.2-1.2-.3-1.1-.9.2-.7-.1-1.2-.6-1-.5.1-.9-.3-.9-.8 0-.6.3-.9.7-.8.4.1.8-.4.8-1.1 0-.7-.6-1.3-1.3-1.3-.7 0-1.2.4-1.1.8.1.4-.2.7-.8.7-.5 0-.9-.4-.8-.9.2-.5-.3-.8-1-.6-.6.1-1.1-.4-1-1 .2-.7-.3-1.2-1-1-.6.1-1.1-.4-.9-1.1.1-.6-.4-1.1-1-1-.7.2-1.2-.3-1-1 .1-.6-.4-1.1-1-1-.7.2-1.2-.3-1-1 .1-.6-.4-1.1-1-1-.7.2-1.2-.3-1-1 .1-.6-.4-1.1-1-1-.7.2-1.2-.3-1-1 .1-.6-.4-1.1-1-1-.7.2-1.2-.3-1-1 .1-.6-.4-1.1-1-1-.7.2-1.2-.3-1-1 .1-.6-.4-1.1-1-1-.7.2-1.2-.3-1-1 .1-.6-.4-1.1-1-1-.7.2-1.2-.3-1-1 .1-.6-.4-1.1-1-1-.7.2-1.2-.2-1.1-.8.1-.6-.4-1.1-1.2-1.1-.8 0-1.3.3-1.2.6zM555.5 59c-1.7 1.9-4.5 2.2-4.2.6.1-.6-.4-1-1-.9-.7.2-1.2-.3-1-1 .1-.6-.4-1.1-1-1-.7.2-1.2-.3-1-1 .1-.6-.4-1.1-1-1-.7.2-1.2-.3-1-1 .1-.6-.4-1.1-1-1-.7.2-1.2-.3-1-1 .1-.6-.4-1.1-1-1-.7.2-1.2-.3-1-1 .1-.6-.4-1.1-1-1-.7.2-1.2-.3-1-1 .1-.6-.4-1.1-1-1-.7.2-1.2-.3-1-1 .1-.6-.4-1.1-1-1-.7.2-1.2-.3-1-1 .1-.6-.4-1.1-1-1-.7.2-1.2-.3-1-1 .1-.6-.4-1.1-1-1-.7.2-1.2-.3-1-1 .1-.6-.4-1.1-1-1-.7.2-1.2-.3-1-1 .1-.6-.4-1.1-1-1-.7.2-1.2-.3-1-1 .1-.6-.4-1.1-1-1-.7.2-1.2-.3-1-1 .1-.6-.3-1.1-1-1-.6.1-1-.5-.9-1.5.2-.9.8-1.7 1.4-1.7.6 0 1.4-.4 1.8-.8.5-.4 7.4 5.9 15.6 14C555.5 56 556.8 57.6 555.5 59z"/><path d="M538.6 45.1c11.8 11.8 15.1 14.6 16.2 13.7 1.1-.9-.6-3-8.4-10.9-5.4-5.4-10.2-9.7-10.8-9.6-.5.1-1-.3-1.1-1 0-1.5-1.4-2.8-2.8-2.8-.7 0-1.2-.5-1.2-1.2 0-1.8-1.4-2.7-4.1-2.9-2.1-.1-.1 2.4 12.2 14.7zm-9.3-12.5c-.2 1.3 1.8 3.5 2.7 2.9.5-.3 1.1-.2 1.4.3 1.3 2.1-2.6.6-5-1.9-2.2-2.3-2.3-2.7-.8-2.5 1.1.2 1.8.7 1.7 1.2zm6.8 6.9c.3-.2 4.7 3.8 9.8 8.9 5.8 5.8 8.9 9.6 8.2 10-.7.5-1 .2-.9-.6.2-.7-.3-1.2-.9-1.1-.7.2-1.2-.3-1-1 .1-.6-.4-1.1-1-1-.7.2-1.2-.2-1-.9.1-.7-.3-1.2-1-1.3-1.5 0-2.8-1.4-2.8-2.8 0-.7-.5-1.2-1.2-1.2-.6 0-1.5-.4-2-.8-.4-.5-.8-1.4-.8-2 0-.7-.5-1.2-1.2-1.2-.6 0-1.5-.4-2-.8-.4-.5-.8-1.4-.8-2 0-.7-.5-1.2-1.2-1.2s-1.8-.7-2.5-1.5c-1.1-1.2-1.1-1.2.3-.2.9.6 1.8 1 2 .7zM587 91.5c-.7.8-1.5 1.3-1.9 1-.4-.2-1.9.7-3.4 2.1-1.5 1.4-2.7 2.2-2.7 1.9 0-.4-1.7.6-3.7 2.3-2.1 1.6-9.6 7.1-16.8 12.2-7.1 5.1-30.2 21.9-51.2 37.2L469 176.1v4.7c-.1 2.6-.7 9.9-1.4 16.2-.8 6.3-1.2 11.7-1.1 11.9.2.2 17.8-9.2 39.2-20.9 38.7-21.3 83.7-46 90.3-49.7l3.5-2v-10.7c0-5.9-.4-11-.8-11.3-.4-.3-.3-1.1.3-1.8.8-.9.8-1.5 0-2-.6-.3-.8-1.1-.4-1.6.3-.5.1-.8-.4-.7-.6.2-1-.2-1-.7 0-.6.3-.9.7-.8.4.1.8-.4.8-1.2 0-.8-.5-1.3-1.1-1.2-.6.1-1-.4-.8-1.1.1-.6-.4-1.1-1-1-.7.2-1.2-.3-1-1 .1-.6-.4-1.1-1-1-.7.2-1.2-.3-1-1 .1-.6-.4-1.1-1-1-.7.2-1.2-.3-1-1 .1-.6-.1-1.1-.5-1-.5.2-.9-.2-.9-.7-.1-.6.1-.9.5-.8.4.1.8-.4.8-1.2 0-.8-.5-1.3-1.1-1.2-.6.1-1-.4-.8-1.1.3-1.6-.3-1.5-1.8.3zm1.1 2.8c-.8.8.3 2.5 4 6.3 3.4 3.4 4.7 5.4 3.9 5.9-.8.5-.5 1.4 1.1 3.1 1.2 1.3 1.9 2.5 1.6 2.5-.4.1-1.1.2-1.7.3-1.4.1-1.3 2.1.2 2.1 1.4 0 2 3.3.7 4.1-.5.3-.8 0-.7-.8.2-.7-.3-1.2-.9-1.1-.7.2-1.2-.3-1-1 .1-.6-.3-1.1-.9-1-.6.1-1.1-.4-1.1-1.2 0-.8.3-1.3.6-1.2.3.1.7-.3.8-.8 0-.6-.3-.9-.8-.8-.5.2-.8 0-.6-.5.1-.4-.2-.8-.8-.9-.5 0-.9.2-.8.6.1.4-.4.8-1.1.8-.7 0-1.3-.6-1.3-1.3 0-.7.3-1.2.6-1.1.3.1.6-.3.6-.8 0-.6-.3-.9-.7-.8-.5.2-.7-.3-.5-1 .1-.6-.4-1.1-1-1-.7.2-1.2-.3-1-1 .1-.6-.3-1.1-.9-1-.6.1-1.1-.4-1.1-1.2 0-.8.4-1.4.9-1.4.4-.1.7-.4.6-.9-.2-.4-.6-.6-1-.5-.5.2-.7-.1-.5-.6.1-.5-.2-.8-.8-.8-.5.1-.9.5-.8.8.1.3-.4.6-1.1.6-.7 0-1.3-.6-1.3-1.3 0-.7.5-1.2 1.1-1.1.5.1 1-.5 1.1-1.3 0-.8.5-1.5 1.2-1.5.6 0 1.5-.3 1.9-.7.4-.4 1.1-.5 1.6-.2.6.4.5 1.1-.1 1.7zm10.4 26.6c.3.5.2 1.2-.3 1.5-.5.3-.9-.1-.9-.9 0-1.7.3-1.9 1.2-.6z"/><path d="M586.5 97c1.6 1.7 2.2 2.9 1.5 3.6-.6.6 1 2.8 4.7 6.4 3.2 3 4.8 4.4 3.7 3-1.2-1.4-2-3.3-1.9-4.2.3-1.7-1-3.2-2.7-3.3-.5 0-.8-.4-.7-.8.1-.5-1.1-2.1-2.5-3.6-1.5-1.5-2.4-3-2.1-3.3.3-.2-.2-.5-1-.5-1.1 0-.9.7 1 2.7zm5.7 6.5c.3 0 .9.3 1.3.7.4.3 0 .5-.9.4-.9-.1-2.2-.8-2.9-1.6-1-1-.9-1.1.3-.4.8.5 1.8.9 2.2.9zM12.3 93.3c.1.7-.4 1.1-1 .9-.7-.1-1.2.4-1 1 .1.7-.4 1.2-1 1-.7-.1-1.2.4-1 1 .1.7-.4 1.2-1 1-.7-.1-1.2.4-1 1 .1.7-.3 1.2-.9 1.1-.6-.1-1.1.4-1.1 1.2 0 .8.4 1.3.8 1.2.4-.1.7.2.7.8 0 .5-.4.9-.9.7-.5-.1-.8.1-.7.5.2.5-.1.8-.7.8-.5 0-.9-.3-.8-.6.1-.3-.4-.6-1.1-.6-.7 0-1.3.6-1.3 1.3 0 .7.3 1.2.6 1.1.3-.1.6.2.6.8 0 .5-.2.9-.5.8-.9-.3-.5 10.1.4 11.6.6 1 .6 1.2-.3.7-.9-.6-1.1 1.3-.9 7.5l.3 8.3 47 25.9c25.9 14.2 51.5 28.3 57.1 31.3l10.1 5.4-.9-6.3c-.9-5.9-.4-20.3.8-25.7.5-2.3-1.8-4.2-30.3-25-52.1-37.9-63.5-46-64.4-45.4-.5.3-.8.2-.7-.3.2-.4-.1-.8-.7-.8-.5 0-.9.3-.8.7.2.5-.3.7-1 .5-.6-.1-1.1.4-1 1 .2.7 0 1.2-.5 1-.4-.1-.7.2-.7.8 0 .5.3.9.6.8.3-.1.6.4.6 1.2 0 .8-.5 1.3-1.1 1.2-.6-.1-1 .4-.8 1 .1.7-.4 1.2-1 1-.7-.1-1.2.4-1 1 .1.7-.4 1.2-1 1-.7-.1-1.2.4-1 1 .1.7-.4 1.2-1 1-.7-.1-1.2.4-1 1 .1.7-.2 1.2-.7 1-.5-.1-.8.2-.7.8 0 .5.4.9.7.8.3-.1.6.4.6 1.1 0 .7-.6 1.3-1.3 1.3-.7 0-1.2-.3-1.1-.6.1-.3-.2-.6-.8-.6-.5 0-.9.3-.8.6.1.3-.5.6-1.2.6-1.1 0-1.2-.4-.4-1.4.6-.7.8-1.3.3-1.3-.4 0 .2-1 1.4-2.3 1.2-1.3 1.9-2.7 1.5-3.2-.5-.4-.2-.5.6 0 1 .6 1.2.4.6-.6-.7-1.2-.6-1.2.7-.1 1.1.9 1.8 1 2.3.2.6-1-.1-1.4-1.9-1.1-.5.1-.3-.5.4-1.4.7-.9.9-1.5.4-1.3-.5.2-1 0-1.1-.5-.6-1.7-.2-1.9 1.4-.6 1.4 1.2 1.6 1.2.8 0-.6-1-.4-1.2.5-.6.8.5 1.1.4.7-.2-.8-1.2 4.6-6.6 5.6-5.6.4.3.7.1.7-.5 0-.7-.3-1.2-.7-1.3-.5 0-1.6-.2-2.5-.4-1-.2-1.6.2-1.5.8zm2.7 0c0 .2-1.7 1.9-3.7 3.8l-3.8 3.4 3.4-3.8c3.3-3.4 4.1-4.2 4.1-3.4zm-10 14c0 .2-1 1.2-2.2 2.3l-2.3 1.9 1.9-2.3c1.8-2.1 2.6-2.7 2.6-1.9zm-1.3 10.2c0 .6-.6 1.2-1.2 1.2s-1.2-.6-1.2-1.2.6-1.2 1.2-1.2 1.2.6 1.2 1.2z"/><path d="M13 97.5c-1.3 1.4-2 2.5-1.5 2.5.4 0 0 .9-.9 1.9-1 1-1.3 2.2-.8 2.5.5.3 1.7-.3 2.6-1.3 1.2-1.3 1.4-2.1.6-2.6-.8-.5-.4-1.5 1.1-3.1 1.2-1.3 2-2.4 1.7-2.4-.2 0-1.5 1.1-2.8 2.5zM4.9 109.7l-2.4 2.8 2.8-2.4c1.5-1.4 2.7-2.6 2.7-2.8 0-.8-.8-.1-3.1 2.4zM0 202.1v21.8l4.3 1.1c2.3.6 6.5 1.8 9.2 2.5C30 232.1 125.4 256 127.1 256c2.4 0 2.4 0-2.4-16.5l-3.2-11-26-10.4c-14.3-5.7-41.6-16.5-60.7-24.1L0 180.2v21.9zM557.5 197c-22 8.8-52.7 21-68.2 27.2-22.8 8.9-28.3 11.5-28.3 13 0 1.2.7 1.8 2.3 1.8 4.4 0 8.8 3.8 11.5 10.1 1.5 3.2 3 5.9 3.4 5.9.9 0 109-27.5 116.6-29.6l5.2-1.5v-21.5c0-16.5-.3-21.4-1.2-21.3-.7 0-19.3 7.2-41.3 15.9zM376.2 220.1c-4 .6-11.4 2-16.5 3.3-10 2.6-41.9 13.7-47.9 16.7-4.5 2.3-5.8 5.8-3.4 9.4 3.6 5.5 9.7 4.5 37.6-6.2 39.8-15.3 54.8-18.6 69-14.9 3 .8 5.7 1.3 5.9 1.1.6-.7-13.4-7.2-17.9-8.3-6.9-1.7-18.7-2.2-26.8-1.1zM197.5 229.6c-10.8 2.3-21 6.9-27.5 12.4l-3.5 3 6.5-2.7c5.2-2.1 8.7-2.7 17.1-3.1 12.5-.5 23.3 1.1 42.4 6.3 30 8.3 44.7 10.4 48.4 7.1 4.8-4.3 1.1-10.3-8-12.9-9.2-2.7-31.9-7.5-43-9.1-9.7-1.5-27.5-2-32.4-1zM358.5 256c-4.9.5-12.7 1.3-17.1 2-7.9 1.2-8.3 1.4-13 6.2-2.7 2.8-3.9 4.5-2.7 3.9 1.2-.6 3.3-1.5 4.6-2l2.4-.9-2.4 6.4c-3.1 8.6-2.9 9.8.6 4.2 4.2-6.6 10-12.8 12-12.8 1.5 0 1.8 1.1 1.9 6.5 0 4.7.8 8 2.6 12l2.5 5.5-5.7.2c-5.1.1-4.9.2 2.3.7 4.4.3 14.2.3 21.7-.1 12.5-.6 14.3-.9 19-3.5 7.1-3.7 17.9-14.5 21.3-21.3 1.5-3 3.5-6 4.4-6.7 1.3-1-3.1-1.2-21.9-1.1-12.9 0-27.5.4-32.5.8zm24.5 5.7c0 3.1-2.6 6.3-5 6.3-2.3 0-6.6-3.5-7.3-5.9-.5-2.1.9-2.5 9.1-2.9 2.8-.2 3.2.1 3.2 2.5zm18-1c-.1 3-3.5 9.6-6.6 12.7-4 3.9-9.4 8-9.9 7.4-.2-.2 0-2.2.6-4.3.7-2.3.8-6.7.4-10.7l-.6-6.8h8c7.1 0 8.1.2 8.1 1.7zm-46.2 16.5c.7.7 1.2 2.5 1.2 4 0 3.7-3.5 3.9-5.2.4-1.9-4.3 1-7.4 4-4.4zM0 281v20h116.2l-.7-3.8c-.4-2-1-7.7-1.4-12.7l-.6-8.9-52.5-6.7c-28.9-3.7-54.4-7-56.7-7.3L0 261v20zM592 262.1c-3 .5-28.9 3.8-57.5 7.4-28.6 3.6-53 6.7-54.2 7-1.9.5-2.3 1.2-2.3 4.8 0 3.9-2 13.9-3.5 17.9-.7 1.7 2.7 1.8 62.4 1.8H600v-20c0-15.4-.3-20-1.2-19.9-.7.1-3.8.5-6.8 1zM213.5 263.6c-1.1.1-10 1-19.8 2l-17.9 1.7 2.4 2.1c1.4 1.2 4.4 4.6 6.7 7.8 4.9 6.5 11.2 11.7 19 15.6 5.2 2.5 6.5 2.7 17.1 2.6 13.1 0 25.2-1.2 24.6-2.3-.3-.4.1-2.9.9-5.6.8-2.6 1.5-8.1 1.5-12.2 0-4 .4-7.3.9-7.3 1.4 0 10.2 8.2 13.4 12.5 3.4 4.7 3 2.1-.9-5.7-1.3-2.6-2.4-5-2.4-5.2 0-.3 1.9.1 4.3.9l4.2 1.5-5-4.5-5-4.5-21 .2c-11.5 0-21.9.2-23 .4zm28.6 4c3.1.5 3.6.9 3.1 2.8-1.3 5.3-5.4 6.1-9.6 2-4.8-4.9-2.9-6.3 6.5-4.8zM209 287c.7 1.7 1 3.3.7 3.6-.8.9-9.4-4.4-12.9-8-3-3-7.4-11.3-6.5-12.2.2-.3 4-.8 8.3-1.2l7.9-.7.6 7.7c.3 4.2 1.2 9.1 1.9 10.8zm9-1.1c1.3 3.2.7 5.1-1.5 5.1-2 0-4.7-4.4-3.9-6.4 1-2.6 4-1.9 5.4 1.3zM419.5 298.7c-5.5 3.6-12.5 9.2-15.6 12.2-14 14.1-20.3 35.3-23.6 80.3l-1.7 22.6-6.9-11.4c-11.3-18.9-13.2-20.1-38.2-23.6-17.8-2.5-21.7-1.9-27.7 4.1l-3.7 3.8-2.2-2.3c-3-3.2-8.1-5.4-12.6-5.4-4.4 0-33 7.3-37.2 9.5-4.8 2.4-8.8 8.1-14.7 20.5-3.2 6.6-5.9 11.9-6.1 11.7-.2-.2-.8-4.2-1.4-8.8-1.1-9.2-7.4-37.3-11.4-51.4-3.4-11.7-10.2-25.8-15.5-31.8-5.5-6.2-14.6-12.7-25.8-18.2-5-2.5-9.3-4.5-9.6-4.5-.3 0-.6.9-.6 2.1 0 1.9-.4 2-5.6 1.3l-5.6-.7.6 4.9c.3 2.7 1.1 10.5 1.6 17.4.6 6.9 1.8 17 2.6 22.5 3.1 21.2 3.3 20-2.3 16.5-1.7-1-4.2-3.7-5.5-5.9-1.3-2.3-2.8-4.1-3.4-4.1-1.5 0-145.7 56.9-146.7 57.9-.4.4-.6 11.4-.5 24.4l.3 23.6 10.5-5.8c9.5-5.2 129.4-71.4 144.8-79.9 3.5-1.9 6.4-3.3 6.6-3.1.2.2 1.3 4.4 2.5 9.3 1.8 7.3 2 9.1.9 10.1-.7.6-27.4 20-59.3 43-72.1 52.1-84.2 60.9-88.3 64.6-1.7 1.6-3.2 2.6-3.2 2.2 0-.4-.5-.2-1.2.5-1.6 1.6-1.9 4.2-.5 3.9.7-.1 1.1.4 1 1-.2.7.3 1.2 1 1 .6-.1 1.1.4 1 1-.2.7.3 1.2 1 1 .6-.1 1.1.4 1 1-.2.7.3 1.2 1 1 .6-.1 1.1.4 1 1-.2.7 0 1.2.5 1 .4-.1.7.3.7.8s-.3.9-.6.8c-.3-.1-.6.4-.6 1.1 0 .7.6 1.3 1.3 1.3.7 0 1.2-.3 1.1-.6-.1-.3.3-.6.8-.6s.9.3.8.7c-.2.5 0 .7.5.5.4-.1.7.2.7.8 0 .5-.3.9-.6.8-.3-.1-.6.4-.6 1.2 0 .8.5 1.3 1.1 1.2.6-.1 1 .4.9 1-.2.7.3 1.2 1 1 .6-.1 1.1.4 1 1-.2.7.3 1.2 1 1 .6-.1 1.1.4 1 1-.2.7.3 1.2 1 1 .6-.1 1.1.4 1 1-.2.7.3 1.2 1 1 .6-.1 1.1.4 1 1-.2.7.3 1.2 1 1 .6-.1 1.1.4 1 1-.2.7.3 1.2 1 1 .6-.1 1.1.4 1 1-.2.7.3 1.2 1 1 .6-.1 1.1.3 1 1-.5 2.7 3.3.1 13.4-9.3 5.9-5.4 29.7-27.7 52.8-49.5 64.3-60.6 66.8-62.9 67.5-62.9.8 0 7.2 17 7.4 19.7.1 1.9-21.2 28.3-70.2 86.9l-5.2 6.2 8.3-2.5c4.5-1.3 16.5-4.4 26.7-6.9s19.3-4.7 20.2-5c.9-.3 7.4-9.6 14.4-20.7s14.3-22.6 16.2-25.6l3.4-5.3 3.5 5.8c14.2 23.6 33.2 37.8 57.4 42.9 14.5 3.1 42.3 2.9 79.9-.6 31.5-2.9 50.3-12.6 66.9-34.3 2.9-3.9 5.4-7.2 5.6-7.4.1-.2 6.6 9.8 14.4 22.2 7.8 12.3 14.7 22.8 15.4 23.4.6.5 4.2 1.9 7.9 3 7.3 2.3 45.8 10.6 46.3 10 .2-.2-15.7-19.7-35.4-43.3l-35.8-43 3.5-10.5c1.9-5.8 3.8-10.9 4.3-11.4.4-.5 9 7 19.1 16.6 41.6 39.4 98.8 93 104.3 97.6 1.2.9 3.1 2.6 4.4 3.7 1.2 1.1 2.1 1.5 1.9 1-.2-.6.2-1 .7-1 .6 0 .9.3.8.6-.1.3.4.6 1.1.6.7 0 1.3-.6 1.3-1.3 0-.7-.3-1.2-.6-1.1-.3.1-.6-.3-.6-.8 0-.6.3-.9.8-.7.4.1.6-.4.5-1-.2-.7.3-1.2 1-1 .6.1 1.1-.4 1-1-.2-.7.3-1.2 1-1 .6.1 1.1-.4 1-1-.2-.7.3-1.2 1-1 .6.1 1.1-.4 1-1-.2-.7.3-1.2 1-1 .6.1 1.1-.4 1-1-.2-.7.3-1.2 1-1 .6.1 1.1-.4 1-1-.2-.7.3-1.2 1-1 .6.1 1.1-.4 1-1-.2-.7.3-1.2 1-1 .6.1 1.1-.4 1-1-.2-.7.2-1.2.8-1.1.6.1 1.1-.4 1.1-1.2 0-.8-.3-1.3-.6-1.2-.3.1-.6-.3-.6-.8 0-.6.3-.9.8-.7.4.1.6-.1.5-.5-.2-.5.2-.8.7-.8.6 0 .9.3.8.6-.1.3.4.6 1.1.6.7 0 1.3-.6 1.3-1.3 0-.7-.3-1.2-.6-1.1-.3.1-.6-.3-.6-.8 0-.6.3-.9.8-.7.4.1.6-.4.5-1-.2-.7.3-1.2 1-1 .6.1 1.1-.4 1-1-.2-.7.2-1.2.8-1.1 2 .4 1.1-2.6-1.5-5-3-2.7-41.6-31-105.1-76.7-23.9-17.2-43.6-31.4-43.6-31.4-.4-.3 3.2-18.6 3.8-19.1.4-.4 3.1.6 6 2.2 6.2 3.6 135.7 75 147.1 81.1l7.7 4.3-.2-24.3-.3-24.2-21-8.4c-84.3-33.5-133.3-52.6-135-52.5-2 .1-2-.5-1.6-31.5l.3-31.5-2.7.7c-7.8 2-8.5 2-8.5-.3 0-1.1-.3-2.1-.8-2.1-.4 0-5.2 3-10.7 6.7zm-75 109.3c6.2 3.1 8.4 6.2 9.1 12.5.4 4 .1 5.9-1.8 9.5-3.4 6.5-11.1 11.2-33.5 20.7-2.7 1.1-1.1-3.6 4.1-12.4 3-5 6.6-10.7 8-12.6 1.4-1.8 2.6-3.6 2.6-3.9 0-.3-2.6.2-5.8 1.2-10 3.1-21.6 4.3-34.6 3.6-6.7-.3-13.1-.9-14.4-1.2-1.9-.5-1 1.1 4.5 7.9 6.9 8.5 13.2 18.7 11.6 18.7-2.4 0-23.5-7.6-28.3-10.1-7.7-4.2-10.3-7.8-10.8-14.9-.7-9.6 3.1-14.2 14.6-17.6 7.4-2.2 35.8-4.3 54.2-4.1 14.3.2 15.9.5 20.5 2.7zM19.7 505.4c0 .8-.3 1.4-.6 1.3-.3-.1-.7.2-.7.8-.1.5.2.9.7.7.5-.1.8.2.7.7-.2.5.2.9.7.9.6 0 .9-.3.8-.7-.1-.4.4-.8 1.1-.8.7 0 1.3.6 1.3 1.3 0 .7-.3 1.2-.6 1.1-.3-.1-.6.2-.6.8 0 .5.3.9.7.7.5-.1.7.4.5 1-.1.7.4 1.2 1.1 1 .6-.1 1.1.4 1 1-.2.7.3 1.2 1 1 .6-.1 1.1.4 1 1-.2.7.3 1.2 1 1 .6-.1 1.1.4 1 1-.2.7.3 1.2.9 1 .7-.1 1.2.4 1 1-.1.7.4 1.2 1 1.1.7-.2 1.2.3 1 1-.1.6.3 1.1.9 1 .6-.1 1.1.4 1.1 1.2 0 .8-.3 1.3-.6 1.2-.3-.1-.6.2-.6.8 0 .5.3.9.7.8.5-.2.7 0 .5.5-.1.4.3.7.8.7.6 0 .9-.3.8-.6-.1-.3.4-.6 1.1-.6.7 0 1.3.6 1.3 1.3 0 .7-.3 1.2-.6 1.1-.3-.1-.6.3-.6.8 0 .6.3.9.7.8.5-.2.7.1.5.6-.1.5.3.9.8.9.6 0 .9-.3.8-.7-.1-.4.4-.8 1.1-.8.7 0 1.3.6 1.3 1.3 0 .7-.4 1.2-.8 1.1-.4-.1-.7.2-.7.8 0 .5.4.9.9.8.5-.2.8.1.6.6-.1.5.3.8.8.8.6-.1.9-.5.8-.8-.1-.3.5-.6 1.3-.6 1 0 .6.9-1.3 2.9l-2.7 2.8-8.3-8.2c-5.5-5.5-7.9-8.5-7.3-9.3.6-.8-1.5-3.5-6.5-8.5-4.1-4-7.2-7.7-6.9-8.2.3-.5.9-.6 1.3-.3.5.2 1.6-.4 2.6-1.5 2.2-2.4 2.2-2.4 2.2-.6zm560.8 8.6c-3.7 3.7-5.2 5.9-4.5 6.6.6.6-2.3 4.3-8.8 10.7l-9.8 9.8-2.2-2.4c-1.6-1.7-1.8-2.4-.8-2.4.8 0 1.4.3 1.3.6-.1.3.3.7.8.8.6 0 .9-.3.8-.8-.2-.5.1-.8.6-.6.5.1.9-.3.9-.8 0-.6-.3-.9-.7-.8-.4.1-.8-.4-.8-1.2 0-.8.5-1.3 1.1-1.2.6.1 1-.4.9-1-.2-.7.3-1.2 1-1 .6.1 1.1-.4 1-1-.2-.7.3-1.2 1-1 .6.1 1.1-.4 1-1-.2-.7.3-1.2 1-1 .6.1 1.1-.4 1-1-.2-.7.3-1.2 1-1 .6.1 1.1-.4 1-1-.2-.7.3-1.2 1-1 .6.1 1.1-.4 1-1.1-.2-.6.3-1.1 1-1 .6.2 1.1-.3 1-1-.2-.6.3-1.1 1-1 .6.2 1.1-.3 1-1-.2-.6.1-1.1.6-1 .5.2.9-.2.9-.7 0-.6-.3-.9-.7-.8-.4.1-.8-.4-.8-1.1 0-.7.6-1.3 1.3-1.3.7 0 1.2.4 1.1.8-.1.4.3.6.8.5.6 0 .9-.4.8-.9-.2-.4 0-.6.5-.5.4.2.7-.2.7-.7 0-.6-.3-.9-.6-.8-.3.1-.6-.4-.6-1.1 0-.7.6-1.3 1.3-1.3.7 0 1.2.4 1.1.8-.1.4.3.7.8.8.6 0 1-1.3.9-2.9l-.1-3 2.4 2.2 2.3 2.2-5.5 5.6z"/><path d="M16.4 509.4c.3 2.3 11.7 13.7 12.9 12.9.6-.4.7-.1.1.8-.4.8-.9 1.9-1 2.6-.2 1.3 2.5 4 3.5 3.5.3-.1.6.2.6.7 0 1.2 1.4 2.6 2.6 2.6.5 0 .8.3.7.7-.5 1.2 6.5 7.8 7.5 7.1.5-.3-1.8-3.3-5.2-6.7-4.1-4.1-5.8-6.5-5.1-7.2.6-.6-2-3.9-8-9.9-4.9-4.8-8.8-8.1-8.6-7.1zm4.6 4.1c1.9 1.9 3.2 3.5 2.9 3.5-.3 0-2-1.6-3.9-3.5s-3.2-3.5-2.9-3.5c.3 0 2 1.6 3.9 3.5zm6.1 6.2c1.3 1.6 1.2 1.7-.3.4-1.7-1.3-2.2-2.1-1.4-2.1.2 0 1 .8 1.7 1.7zm4.5 6c-.3 1.9-1.9 2.1-2.1.2-.2-.9.3-1.6 1-1.6s1.2.6 1.1 1.4zm9 11.5l2.9 3.3-3.2-2.9c-3.1-2.8-3.8-3.6-3-3.6.2 0 1.6 1.5 3.3 3.2zM582.5 507.7c.2 1.2-3.8 5.9-11.7 13.9-7.8 7.9-11.6 12.4-10.8 12.9.8.5.5 1.5-1.1 3.4-1.3 1.4.9-.5 4.8-4.3 4-3.8 7.1-7.4 7-8-.1-.5.3-1 .8-1.1 2-.1 3.3-1.5 3-3.3-.2-1 2-4 5.2-7.3 4.6-4.7 5.2-5.7 3.9-6.8-1.2-1-1.4-.9-1.1.6zm-9.1 15.5c-.4.5-.9.7-1.2.4-.3-.3-1.2 0-2.1.7-1.4 1-1.4 1-.4-.4 1.3-1.6 4.6-2.3 3.7-.7zm-7.6 7.5c-2.3 2.3-4.3 4.3-4.4 4.3-.1 0-.1-.7 0-1.5.3-1.8 1.4-3 2.9-3 .7 0 1.2-.5 1.2-1 0-1.8 1.4-3.2 3-3.2 1 0 .1 1.5-2.7 4.4zM460.6 324.3c-4 6.7-7 14.7-6 15.6.5.5 32.6 9.1 71.4 19.1 38.8 10 71.3 18.4 72.3 18.6 1.6.5 1.7-.9 1.7-20v-20.5l-3.2-.6c-3.9-.6-131.2-16.5-132.7-16.5-.6 0-2.1 1.9-3.5 4.3zM62.5 329c-29.2 3.7-55.1 7-57.7 7.4l-4.8.7v20.5c0 11.2.1 20.4.3 20.4.1 0 26.3-6.8 58.2-15 31.9-8.3 62.8-16.3 68.8-17.7 5.9-1.5 10.7-3.2 10.7-3.8 0-.6-1.4-2.4-3-4-1.7-1.6-4.9-5.7-7.1-9.2-4-6.1-4.3-6.3-8.3-6.2-2.2.1-27.9 3.2-57.1 6.9z"/></svg>